<?xml version="1.0" standalone="no"?><!DOCTYPE svg PUBLIC "-//W3C//DTD SVG 1.1//EN" "http://www.w3.org/Graphics/SVG/1.1/DTD/svg11.dtd"><svg t="1520671788096" class="icon" style="" viewBox="0 0 1024 1024" version="1.1" xmlns="http://www.w3.org/2000/svg" p-id="1959" xmlns:xlink="http://www.w3.org/1999/xlink" width="200" height="200"><defs><style type="text/css"></style></defs><path d="M441.344 481.28c4.096-43.008 16.384-84.992 36.864-120.832 33.792-58.368 88.064-92.16 161.792-94.208 12.288-35.84 47.104-61.44 87.04-61.44 51.2 0 92.16 40.96 92.16 92.16s-40.96 92.16-92.16 92.16c-39.936 0-73.728-25.6-87.04-61.44-82.944 3.072-128 67.584-137.216 153.6h137.216c12.288-35.84 47.104-61.44 87.04-61.44 51.2 0 92.16 40.96 92.16 92.16s-40.96 92.16-92.16 92.16c-39.936 0-74.752-25.6-87.04-61.44H502.784c7.168 92.16 50.176 154.624 137.216 153.6 12.288-35.84 47.104-61.44 87.04-61.44 51.2 0 92.16 40.96 92.16 92.16s-40.96 92.16-92.16 92.16c-39.936 0-74.752-25.6-87.04-61.44-75.776 1.024-131.072-33.792-164.864-93.184-19.456-35.84-30.72-77.824-33.792-121.856h-57.344c-12.288 35.84-47.104 61.44-87.04 61.44-51.2 0-92.16-40.96-92.16-92.16s40.96-92.16 92.16-92.16c39.936 0 74.752 25.6 87.04 61.44h57.344zM727.04 327.68c17.408 0 30.72-13.312 30.72-30.72s-13.312-30.72-30.72-30.72-30.72 13.312-30.72 30.72 13.312 30.72 30.72 30.72z m0 430.08c17.408 0 30.72-13.312 30.72-30.72s-13.312-30.72-30.72-30.72-30.72 13.312-30.72 30.72 13.312 30.72 30.72 30.72z m0-215.04c17.408 0 30.72-13.312 30.72-30.72s-13.312-30.72-30.72-30.72-30.72 13.312-30.72 30.72 13.312 30.72 30.72 30.72z m-430.08 0c17.408 0 30.72-13.312 30.72-30.72s-13.312-30.72-30.72-30.72-30.72 13.312-30.72 30.72 13.312 30.72 30.72 30.72z" p-id="1960"></path></svg>